<svg width="26" height="26" viewBox="0 0 26 26" fill="none" xmlns="http://www.w3.org/2000/svg">
<path d="M19.4171 6H18.5971L16.8971 1.32C16.7564 0.934104 16.5007 0.600651 16.1645 0.364616C15.8283 0.128582 15.4279 0.00132163 15.0171 0H13.4171C12.8671 0 12.4171 0.45 12.4171 1C12.4171 1.55 12.8671 2 13.4171 2H15.0171L16.4771 6H11.6671L11.3071 5H11.3971C11.9471 5 12.3971 4.55 12.3971 4C12.3971 3.45 11.9471 3 11.3971 3H8.4171C7.8671 3 7.4171 3.45 7.4171 4C7.4171 4.55 7.8671 5 8.4171 5H9.1671L10.9871 10H10.3171C9.8771 7.77 8.0071 6.12 5.6671 6.01C2.8671 5.87 0.417098 8.2 0.417098 11C0.417098 13.8 2.6171 16 5.4171 16C7.8771 16 9.8671 14.31 10.3171 12H14.5171C14.9571 14.23 16.8271 15.88 19.1671 15.99C21.9671 16.12 24.4171 13.8 24.4171 10.99C24.4171 8.2 22.2171 6 19.4171 6ZM6.4171 12H8.2371C7.8171 13.23 6.6371 14.08 5.2171 13.99C3.7271 13.9 2.4871 12.64 2.4171 11.14C2.3471 9.39 3.6871 8 5.4171 8C6.7471 8 7.8371 8.83 8.2371 10H6.4171C5.8671 10 5.4171 10.45 5.4171 11C5.4171 11.55 5.8671 12 6.4171 12ZM14.5171 10H13.1171L12.3871 8H15.4171C14.9771 8.58 14.6571 9.25 14.5171 10ZM19.2971 14C17.7571 13.94 16.4571 12.63 16.4171 11.08C16.3971 10.12 16.8071 9.28 17.4671 8.72L18.0871 10.42C18.2771 10.94 18.8471 11.21 19.3671 11.02C19.8871 10.83 20.1571 10.26 19.9671 9.74L19.3371 8.01L19.3471 8C19.748 7.98633 20.1476 8.05405 20.5216 8.19908C20.8956 8.3441 21.2364 8.56343 21.5233 8.84381C21.8102 9.12418 22.0374 9.4598 22.191 9.83039C22.3446 10.201 22.4215 10.5989 22.4171 11C22.4171 12.72 21.0371 14.06 19.2971 14ZM25.5824 18.914L0 19.3784L14.1301 25.5157L25.5824 18.914Z" fill="url(#paint0_linear_49_270)"/>
<defs>
<linearGradient id="paint0_linear_49_270" x1="13.2533" y1="0.60923" x2="13.2533" y2="22.6092" gradientUnits="userSpaceOnUse">
<stop stop-color="#FFC700"/>
<stop offset="1" stop-color="#FDDC68"/>
</linearGradient>
</defs>
</svg>
